# xmcd
#
# Track frame offsets:
#	150
#	14150
#	26788
#	41885
#	61380
#	72080
#	85008
#	97833
#	114515
#	131135
#	142175
#	154153
#	169738
#	181270
#	196455
#	209545
#
# Disc length: 2956 seconds
#
# Revision: 1
# Processed by: cddbd v1.5.1PL0 Copyright (c) Steve Scherf et al.
# Submitted via: CDex 1.50Beta5
#
DISCID=eb0b8a10
DTITLE=Various Artist - 軍歌名曲集 若鷲の歌
DYEAR=1900
DGENRE=
TTITLE0=霧島昇・三鷹淳/露営の歌
TTITLE1=伊藤久男/出征兵士を送る歌
TTITLE2=東海林太郎/麦と兵隊
TTITLE3=淀かほる/愛国の花
TTITLE4=伊藤久男/父よあなたは強かった
TTITLE5=村田英雄/空の勇士
TTITLE6=藤山一郎/燃ゆる大空
TTITLE7=伊藤久男/暁に祈る
TTITLE8=伊藤久男/海の進軍
TTITLE9=霧島昇/月月火水木金金
TTITLE10=藤山一郎/英国東洋艦隊潰滅
TTITLE11=岡本敦朗/空の神兵
TTITLE12=岡本敦朗/ラバウル海軍航空隊
TTITLE13=霧島昇・三鷹淳/若鷲の歌
TTITLE14=村田英雄/ああ紅の血は燃ゆる
TTITLE15=伊藤久男/海ゆかば
EXTD=
EXTT0=
EXTT1=
EXTT2=
EXTT3=
EXTT4=
EXTT5=
EXTT6=
EXTT7=
EXTT8=
EXTT9=
EXTT10=
EXTT11=
EXTT12=
EXTT13=
EXTT14=
EXTT15=
PLAYORDER=
